<?xml version="1.0" encoding="UTF-8"?>
<svg width="21px" height="37px" viewBox="0 0 21 37" version="1.1" xmlns="http://www.w3.org/2000/svg" xmlns:xlink="http://www.w3.org/1999/xlink">
    <!-- Generator: sketchtool 51.1 (57501) - http://www.bohemiancoding.com/sketch -->
    <title>0C6D8484-2AC2-4E8D-95B2-9B7491A92A56</title>
    <desc>Created with sketchtool.</desc>
    <defs></defs>
    <g id="mockups" stroke="none" stroke-width="1" fill="none" fill-rule="evenodd">
        <g id="1_home" transform="translate(-106.000000, -493.000000)" fill="#FFFFFF">
            <g id="announce" transform="translate(84.000000, 173.000000)">
                <path d="M32.2857265,341.999989 C33.1696562,341.999989 34.0334965,341.899543 34.8571582,341.69865 L34.8571582,354.857147 C34.8571582,355.560273 34.2745682,356.142863 33.5714424,356.142863 L31.0000107,356.142863 C30.2968849,356.142863 29.7142949,355.560273 29.7142949,354.857147 L29.7142949,341.69865 C30.5379566,341.899543 31.4017969,341.999989 32.2857265,341.999989 Z M32.2857265,320.14282 C37.9710012,320.14282 42.5714531,324.743272 42.5714531,330.428547 C42.5714531,336.113822 37.9710012,340.714273 32.2857265,340.714273 C26.6004519,340.714273 22,336.113822 22,330.428547 C22,324.743272 26.6004519,320.14282 32.2857265,320.14282 Z M32.2857265,324.642826 C32.6473341,324.642826 32.9285845,324.361575 32.9285845,323.999968 C32.9285845,323.63836 32.6473341,323.35711 32.2857265,323.35711 C28.3884005,323.35711 25.2142895,326.531221 25.2142895,330.428547 C25.2142895,330.790154 25.4955399,331.071405 25.8571475,331.071405 C26.218755,331.071405 26.5000054,330.790154 26.5000054,330.428547 C26.5000054,327.234347 29.0915263,324.642826 32.2857265,324.642826 Z" id="map-pin"></path>
            </g>
        </g>
    </g>
</svg>
